<svg xmlns="http://www.w3.org/2000/svg" xmlns:xlink="http://www.w3.org/1999/xlink" viewBox="0 0 490.01 146">
  <defs>
    <linearGradient id="a" data-name="Безымянный градиент 2" x1="1.24" y1="841.94" x2="1.24" y2="841.65" gradientTransform="matrix(511.95, 0, 0, -512.01, -510.94, 431108.47)" gradientUnits="userSpaceOnUse">
      <stop offset="0" stop-color="#f7aa4d"/>
      <stop offset="1" stop-color="#f39321"/>
    </linearGradient>
  </defs>
  <title>logo</title>
  <g>
    <path d="M197,123.66a73,73,0,1,1-53.16-88.48A73,73,0,0,1,197,123.66h0Z" transform="translate(-53.24 -33)" fill="url(#a)"/>
    <path d="M158.41,95.6c1.45-9.71-5.94-14.94-16.06-18.42L145.63,64l-8-2-3.19,12.81c-2.11-.52-4.27-1-6.42-1.51l3.22-12.9-8-2-3.28,13.15c-1.74-.4-3.45-0.79-5.11-1.2v0l-11-2.76-2.13,8.55s5.94,1.36,5.82,1.45c3.24,0.81,3.83,3,3.73,4.66l-9,36a2.92,2.92,0,0,1-3.67,1.9c0.08,0.12-5.82-1.45-5.82-1.45l-4,9.17,10.42,2.6c1.94,0.49,3.84,1,5.71,1.47l-3.31,13.31,8,2,3.28-13.17c2.19,0.59,4.31,1.14,6.38,1.66L116,148.88l8,2,3.31-13.28c13.66,2.58,23.93,1.54,28.25-10.81,3.48-9.95-.17-15.68-7.36-19.43,5.23-1.21,9.18-4.65,10.23-11.76h0Zm-18.3,25.66c-2.48,9.95-19.22,4.57-24.65,3.22l4.4-17.63C125.28,108.2,142.69,110.89,140.11,121.26Zm2.48-25.81c-2.26,9-16.2,4.45-20.72,3.32l4-16C130.37,83.91,144.94,86,142.58,95.45Z" transform="translate(-53.24 -33)" fill="#fff"/>
  </g>
  <g>
    <path d="M248.72,66.7A12,12,0,0,1,254,67.78a10.52,10.52,0,0,1,3.7,2.93,12.26,12.26,0,0,1,2.17,4.34,19.68,19.68,0,0,1,.7,5.36,21.83,21.83,0,0,1-6.06,15.15,20.82,20.82,0,0,1-6.63,4.59,20.3,20.3,0,0,1-8.29,1.69l-2,0a29.37,29.37,0,0,1-3.28-.29,38.56,38.56,0,0,1-3.92-.77,19.93,19.93,0,0,1-3.92-1.4L237.5,53l9.89-1.53-4,16.46A15.23,15.23,0,0,1,246,67,11.31,11.31,0,0,1,248.72,66.7ZM240.43,94a8.62,8.62,0,0,0,4.21-1.08,11.14,11.14,0,0,0,3.41-2.9,14.59,14.59,0,0,0,2.26-4.11,14,14,0,0,0,.83-4.78,9.41,9.41,0,0,0-1-4.78q-1-1.72-3.76-1.72a11.25,11.25,0,0,0-2.33.32,5.71,5.71,0,0,0-2.58,1.34l-4.21,17.48,0.67,0.13a5,5,0,0,0,.61.1,7.63,7.63,0,0,0,.77,0h1.15Z" transform="translate(-53.24 -33)" fill="#f6f6f6"/>
    <path d="M272.58,100.95h-9.44l8-33.55h9.5Zm4.59-37.63a5.85,5.85,0,0,1-3.57-1.18,4.19,4.19,0,0,1-1.59-3.6,6,6,0,0,1,.54-2.52A6.65,6.65,0,0,1,274,54a6.9,6.9,0,0,1,2.07-1.37,6.28,6.28,0,0,1,2.52-.51,5.86,5.86,0,0,1,3.57,1.18,4.19,4.19,0,0,1,1.59,3.6,6,6,0,0,1-.54,2.52,6.67,6.67,0,0,1-1.44,2,6.9,6.9,0,0,1-2.07,1.37A6.27,6.27,0,0,1,277.17,63.32Z" transform="translate(-53.24 -33)" fill="#f6f6f6"/>
    <path d="M290.31,59l9.89-1.53-2.42,9.89h10.59l-1.91,7.78H295.92l-2.81,11.74a15.51,15.51,0,0,0-.48,2.74,4.49,4.49,0,0,0,.32,2.2,2.94,2.94,0,0,0,1.44,1.44,6.35,6.35,0,0,0,2.81.51,15.09,15.09,0,0,0,3-.29,21.86,21.86,0,0,0,2.9-.8l0.7,7.27a33.93,33.93,0,0,1-4.15,1.21,24,24,0,0,1-5.29.51,14.58,14.58,0,0,1-6.82-1.31,7.55,7.55,0,0,1-3.44-3.57,11.29,11.29,0,0,1-.89-5.2,33.35,33.35,0,0,1,.89-6.19Z" transform="translate(-53.24 -33)" fill="#f6f6f6"/>
    <path d="M308.67,87.55a23.51,23.51,0,0,1,1.4-8.16,20.07,20.07,0,0,1,4-6.7,18.79,18.79,0,0,1,6.35-4.53,20.27,20.27,0,0,1,8.32-1.66,22.16,22.16,0,0,1,5.13.54A20.39,20.39,0,0,1,338,68.48l-3.25,7.4q-1.28-.51-2.65-0.92a11.71,11.71,0,0,0-3.35-.42,9.36,9.36,0,0,0-7.53,3.22Q318.5,81,318.5,86.53a9,9,0,0,0,1.4,5.26q1.4,2,5.17,2a16.43,16.43,0,0,0,3.57-.38,17.39,17.39,0,0,0,3.06-1l0.7,7.59a32.43,32.43,0,0,1-3.92,1.24,21.46,21.46,0,0,1-5.2.54,17.35,17.35,0,0,1-6.7-1.15,12.67,12.67,0,0,1-4.53-3.09A11.67,11.67,0,0,1,309.47,93,18.68,18.68,0,0,1,308.67,87.55Z" transform="translate(-53.24 -33)" fill="#f6f6f6"/>
    <path d="M351,101.84a15.41,15.41,0,0,1-5.87-1A10.85,10.85,0,0,1,341,97.95a12.38,12.38,0,0,1-2.46-4.37,17.76,17.76,0,0,1-.83-5.58,24.64,24.64,0,0,1,1.24-7.65,21.88,21.88,0,0,1,3.67-6.89,19.6,19.6,0,0,1,5.93-5,16.29,16.29,0,0,1,8-1.95,15.48,15.48,0,0,1,5.84,1,10.84,10.84,0,0,1,4.15,2.87A12.41,12.41,0,0,1,369,74.76a17.79,17.79,0,0,1,.83,5.58A25.24,25.24,0,0,1,368.63,88a22.14,22.14,0,0,1-3.57,6.89,18.74,18.74,0,0,1-5.9,5A16.75,16.75,0,0,1,351,101.84Zm4.72-27.3a6,6,0,0,0-3.7,1.21,10.38,10.38,0,0,0-2.68,3.06,15.07,15.07,0,0,0-1.63,4,17.47,17.47,0,0,0-.54,4.18,10.06,10.06,0,0,0,1,5,3.91,3.91,0,0,0,3.7,1.75,5.94,5.94,0,0,0,3.7-1.21,10.38,10.38,0,0,0,2.68-3.06,15.12,15.12,0,0,0,1.63-4,17.51,17.51,0,0,0,.54-4.18,10.07,10.07,0,0,0-1-5A3.91,3.91,0,0,0,355.68,74.54Z" transform="translate(-53.24 -33)" fill="#f6f6f6"/>
    <path d="M381.83,100.95h-9.44l8-33.55h9.5Zm4.59-37.63a5.85,5.85,0,0,1-3.57-1.18,4.19,4.19,0,0,1-1.59-3.6A6,6,0,0,1,381.8,56a6.65,6.65,0,0,1,1.44-2,6.9,6.9,0,0,1,2.07-1.37,6.28,6.28,0,0,1,2.52-.51,5.86,5.86,0,0,1,3.57,1.18,4.19,4.19,0,0,1,1.59,3.6,6,6,0,0,1-.54,2.52,6.67,6.67,0,0,1-1.44,2,6.9,6.9,0,0,1-2.07,1.37A6.27,6.27,0,0,1,386.42,63.32Z" transform="translate(-53.24 -33)" fill="#f6f6f6"/>
    <path d="M398.15,68.93l2.39-.73q1.31-.41,2.93-0.77t3.64-.57a41.77,41.77,0,0,1,4.56-.22q7.52,0,10.33,4.34t1,11.86l-4.34,18.11h-9.5l4.21-17.73q0.38-1.66.61-3.22a7.84,7.84,0,0,0,0-2.74,3.25,3.25,0,0,0-1.18-1.91,4.54,4.54,0,0,0-2.84-.73,19.13,19.13,0,0,0-3.76.38l-6.19,26h-9.5Z" transform="translate(-53.24 -33)" fill="#f6f6f6"/>
    <path d="M295.41,129.93q1.08-.32,2.33-0.73t2.81-.77a34,34,0,0,1,3.51-.57,40,40,0,0,1,4.5-.22,14.38,14.38,0,0,1,5.07.77,11.32,11.32,0,0,1,3.67,2.3,32,32,0,0,1,4.69-2.2,15.69,15.69,0,0,1,5.45-.86,14.74,14.74,0,0,1,5.13.8,9.15,9.15,0,0,1,3.54,2.3,9,9,0,0,1,2,3.57,15.47,15.47,0,0,1,.64,4.56,19.73,19.73,0,0,1-.16,2.42,21.55,21.55,0,0,1-.48,2.55l-4.34,18.11h-9.5l4.21-17.73q0.19-.89.41-2a11.21,11.21,0,0,0,.22-2.2,5.66,5.66,0,0,0-.83-3.09q-0.83-1.31-3.25-1.31a6.88,6.88,0,0,0-2.55.48,21,21,0,0,0-2.17,1,4,4,0,0,1,.13,1v0.83a19.64,19.64,0,0,1-.16,2.42,21.65,21.65,0,0,1-.48,2.55l-4.34,18.11H306l4.21-17.73q0.19-.89.41-2a11.21,11.21,0,0,0,.22-2.2,5.66,5.66,0,0,0-.83-3.09q-0.83-1.31-3.25-1.31a13,13,0,0,0-1.72.1q-0.7.1-1.66,0.29l-6.19,26h-9.5Z" transform="translate(-53.24 -33)" fill="#f6f6f6"/>
    <path d="M343.56,148.81A22.35,22.35,0,0,1,345,140.9a21.67,21.67,0,0,1,4-6.79,20.07,20.07,0,0,1,6.35-4.78,18.6,18.6,0,0,1,8.26-1.82,13,13,0,0,1,4.15.64,10.06,10.06,0,0,1,3.35,1.85,8.36,8.36,0,0,1,2.23,3,9.55,9.55,0,0,1,.8,4,11,11,0,0,1-1.59,6.06,12,12,0,0,1-4.43,4,22,22,0,0,1-6.73,2.26,47.78,47.78,0,0,1-8.48.7,5.66,5.66,0,0,0,1.95,3.79,8,8,0,0,0,4.75,1.12,25.13,25.13,0,0,0,4.15-.35,20.64,20.64,0,0,0,4-1.05l0.7,7.46a28.56,28.56,0,0,1-4.56,1.28,29.74,29.74,0,0,1-6,.57,17.56,17.56,0,0,1-6.67-1.12,11.33,11.33,0,0,1-6.86-7.49A18.77,18.77,0,0,1,343.56,148.81ZM362.12,135a8,8,0,0,0-5.71,2.33,11.26,11.26,0,0,0-3.22,6.15,35.49,35.49,0,0,0,6.38-.67,13.84,13.84,0,0,0,3.76-1.31,4.27,4.27,0,0,0,1.79-1.66,4,4,0,0,0,.45-1.79Q365.56,135,362.12,135Z" transform="translate(-53.24 -33)" fill="#f6f6f6"/>
    <path d="M386.36,155.19q3.25,0,4.46-.92a2.57,2.57,0,0,0,1.21-2,3,3,0,0,0-.22-1.21,2.77,2.77,0,0,0-.73-1,7.7,7.7,0,0,0-1.4-.92q-0.89-.48-2.3-1.12a32.48,32.48,0,0,1-3-1.5,10.41,10.41,0,0,1-2.46-1.91,8.51,8.51,0,0,1-1.66-2.55,8.73,8.73,0,0,1-.61-3.41,9.84,9.84,0,0,1,3.79-8.16q3.79-3,11.07-3A22.51,22.51,0,0,1,405,129.93L401.73,137a20.18,20.18,0,0,0-3.44-1.34,14.26,14.26,0,0,0-4.15-.64,15.93,15.93,0,0,0-1.75.1,5.52,5.52,0,0,0-1.59.41,3,3,0,0,0-1.18.89,2.43,2.43,0,0,0-.45,1.53,2.12,2.12,0,0,0,1,1.91,30.29,30.29,0,0,0,2.77,1.53q2.49,1.21,4.15,2.23a11.24,11.24,0,0,1,2.65,2.17,7.17,7.17,0,0,1,1.44,2.62,11.91,11.91,0,0,1,.45,3.44,10,10,0,0,1-.86,4,9.44,9.44,0,0,1-2.71,3.51,14.55,14.55,0,0,1-4.72,2.49,21.89,21.89,0,0,1-6.89,1,28.93,28.93,0,0,1-4.5-.32,25.31,25.31,0,0,1-3.54-.8,18.87,18.87,0,0,1-2.58-1q-1.05-.51-1.63-0.83l3.25-7.27a29.7,29.7,0,0,0,3.38,1.59A14.41,14.41,0,0,0,386.36,155.19Z" transform="translate(-53.24 -33)" fill="#f6f6f6"/>
    <path d="M417.16,155.19q3.25,0,4.46-.92a2.57,2.57,0,0,0,1.21-2,3,3,0,0,0-.22-1.21,2.77,2.77,0,0,0-.73-1,7.7,7.7,0,0,0-1.4-.92q-0.89-.48-2.3-1.12a32.48,32.48,0,0,1-3-1.5,10.41,10.41,0,0,1-2.46-1.91,8.51,8.51,0,0,1-1.66-2.55,8.73,8.73,0,0,1-.61-3.41,9.84,9.84,0,0,1,3.79-8.16q3.79-3,11.07-3a22.51,22.51,0,0,1,10.46,2.42L432.53,137a20.18,20.18,0,0,0-3.44-1.34,14.26,14.26,0,0,0-4.15-.64,15.93,15.93,0,0,0-1.75.1,5.52,5.52,0,0,0-1.59.41,3,3,0,0,0-1.18.89A2.43,2.43,0,0,0,420,138a2.12,2.12,0,0,0,1,1.91,30.29,30.29,0,0,0,2.77,1.53q2.49,1.21,4.15,2.23a11.24,11.24,0,0,1,2.65,2.17,7.17,7.17,0,0,1,1.44,2.62,11.91,11.91,0,0,1,.45,3.44,10,10,0,0,1-.86,4,9.44,9.44,0,0,1-2.71,3.51,14.55,14.55,0,0,1-4.72,2.49,21.89,21.89,0,0,1-6.89,1,28.93,28.93,0,0,1-4.5-.32,25.31,25.31,0,0,1-3.54-.8,18.87,18.87,0,0,1-2.58-1q-1.05-.51-1.63-0.83l3.25-7.27a29.7,29.7,0,0,0,3.38,1.59A14.41,14.41,0,0,0,417.16,155.19Z" transform="translate(-53.24 -33)" fill="#f6f6f6"/>
    <path d="M468.5,147.47a21.15,21.15,0,0,0-.51,7.3,26.13,26.13,0,0,0,1.47,6.54L461,162.52q-0.38-.77-0.7-1.47t-0.64-1.59a17,17,0,0,1-4,2.42,11.88,11.88,0,0,1-4.85,1,12.24,12.24,0,0,1-5.45-1.12,10.28,10.28,0,0,1-3.7-3,12,12,0,0,1-2.07-4.4,22.9,22.9,0,0,1,.92-13.68,21.11,21.11,0,0,1,4.34-6.79,20.24,20.24,0,0,1,6.54-4.56,20,20,0,0,1,8.16-1.66q0.57,0,2,.06t3.28,0.29a32,32,0,0,1,3.89.73,20.26,20.26,0,0,1,3.89,1.4Zm-6.63-11.74q-0.83-.13-1.5-0.19t-1.63-.06a8,8,0,0,0-4,1.08,11.6,11.6,0,0,0-3.28,2.84,13.51,13.51,0,0,0-2.2,4,14.47,14.47,0,0,0-.8,4.78,9.77,9.77,0,0,0,1,4.85q1,1.79,3.76,1.79a6,6,0,0,0,2.65-.57,9.74,9.74,0,0,0,2.52-1.91q0.13-1.59.41-3.35t0.61-3.22Z" transform="translate(-53.24 -33)" fill="#f6f6f6"/>
    <path d="M503.52,157.74a30.76,30.76,0,0,1-2.52,7.18,16.65,16.65,0,0,1-3.89,5,15.18,15.18,0,0,1-5.58,3,26.2,26.2,0,0,1-7.59,1,26.61,26.61,0,0,1-6.76-.73,27.9,27.9,0,0,1-5-1.82l3.19-7.53a32.78,32.78,0,0,0,4.11,1.53,18.65,18.65,0,0,0,5.26.64q4.08,0,6.15-1.82a8.51,8.51,0,0,0,2.71-4.69l0.25-1.21a14.29,14.29,0,0,1-2.71,1,11.73,11.73,0,0,1-3,.38,13.1,13.1,0,0,1-5.17-.92,9.14,9.14,0,0,1-3.54-2.58,10.92,10.92,0,0,1-2-3.92,17.37,17.37,0,0,1-.67-4.94,19.64,19.64,0,0,1,1.79-8.58,18.29,18.29,0,0,1,4.75-6.22,20.54,20.54,0,0,1,6.82-3.76,25.54,25.54,0,0,1,8.07-1.28,29.07,29.07,0,0,1,6.06.64,27.24,27.24,0,0,1,5.87,2Zm-4.21-22a12,12,0,0,0-2.68-.25,10.46,10.46,0,0,0-4.34.86,10.13,10.13,0,0,0-3.28,2.33,10,10,0,0,0-2.1,3.54,13.19,13.19,0,0,0-.73,4.43,11.25,11.25,0,0,0,.19,2.14,4.44,4.44,0,0,0,.7,1.72,3.65,3.65,0,0,0,1.4,1.18,5,5,0,0,0,2.23.45,12.09,12.09,0,0,0,2.39-.32,5.59,5.59,0,0,0,2.71-1.47Z" transform="translate(-53.24 -33)" fill="#f6f6f6"/>
    <path d="M512.64,148.81a22.35,22.35,0,0,1,1.44-7.91,21.67,21.67,0,0,1,4-6.79,20.07,20.07,0,0,1,6.35-4.78,18.6,18.6,0,0,1,8.26-1.82,13,13,0,0,1,4.15.64,10.06,10.06,0,0,1,3.35,1.85,8.36,8.36,0,0,1,2.23,3,9.54,9.54,0,0,1,.8,4,11,11,0,0,1-1.59,6.06,12,12,0,0,1-4.43,4,22,22,0,0,1-6.73,2.26,47.78,47.78,0,0,1-8.48.7,5.66,5.66,0,0,0,1.95,3.79,8,8,0,0,0,4.75,1.12,25.13,25.13,0,0,0,4.15-.35,20.64,20.64,0,0,0,4-1.05l0.7,7.46a28.56,28.56,0,0,1-4.56,1.28,29.74,29.74,0,0,1-6,.57,17.56,17.56,0,0,1-6.67-1.12,11.33,11.33,0,0,1-6.86-7.49A18.77,18.77,0,0,1,512.64,148.81ZM531.2,135a8,8,0,0,0-5.71,2.33,11.26,11.26,0,0,0-3.22,6.15,35.49,35.49,0,0,0,6.38-.67,13.84,13.84,0,0,0,3.76-1.31,4.27,4.27,0,0,0,1.79-1.66,4,4,0,0,0,.45-1.79Q534.64,135,531.2,135Z" transform="translate(-53.24 -33)" fill="#f6f6f6"/>
  </g>
</svg>
